.
 
http://www.scenetime.com    -  Hottest private tracker on the net. !!!

New release on http://www.scenetime.com

        Seed back for speed


...................................NFO:.................................................
ooooooooooooo ooooooooo.    o8o  ooooo      ooo  o8o  ooooooooooooo oooooo   oooo 
8'   888   `8 `888   `Y88.  `"'  `888b.     `8'  `"'  8'   888   `8  `888.   .8'  
     888       888   .d88' oooo   8 `88b.    8  oooo       888        `888. .8'   
     888       888ooo88P'  `888   8   `88b.  8  `888       888         `888.8'    
     888       888`88b.     888   8     `88b.8   888       888          `888'     
     888       888  `88b.   888   8       `888   888       888           888      
    o888o     o888o  o888o o888o o8o        `8  o888o     o888o         o888o  
                                     ___________                    ______
                              ______ ___  /__  /____  _____________ __  /
                              _  __ `/_  /__  /__  / / /  ___/  __ `/  __/
                              / /_/ /_  / _  / _  /_/ // /__ / /_/ // /
                              \__,_/ /_/  /_/  _\__, / \___/ \__,_/ \__/ 
                                               /____/







 EnCoDer:Allycat




[img]http://i.imgur.com/IqAOb.jpg[/img]


General
Complete name                    : The Three Musketeers DVDSCR STUDiO AUDiO XVID AC3-TRiNiTY.avi
Format                           : AVI
Format/Info                      : Audio Video Interleave
File size                        : 1.49 GiB
Duration                         : 1h 49mn
Overall bit rate                 : 1 957 Kbps
Writing library                  : VirtualDub build 30091/release

Video
ID                               : 0
Format                           : MPEG-4 Visual
Format profile                   : Advanced Simple@L5
Format settings, BVOP            : 1
Format settings, QPel            : No
Format settings, GMC             : No warppoints
Format settings, Matrix          : Default (H.263)
Muxing mode                      : Packed bitstream
Codec ID                         : XVID
Codec ID/Hint                    : XviD
Duration                         : 1h 49mn
Bit rate                         : 1 500 Kbps
Width                            : 704 pixels
Height                           : 320 pixels
Display aspect ratio             : 2.2:1
Frame rate                       : 25.000 fps
Color space                      : YUV
Chroma subsampling               : 4:2:0
Bit depth                        : 8 bits
Scan type                        : Progressive
Compression mode                 : Lossy
Bits/(Pixel*Frame)               : 0.266
Stream size                      : 1.15 GiB (77%)
Writing library                  : XviD 1.2.1 (UTC 2008-12-04)

Audio
ID                               : 1
Format                           : AC-3
Format/Info                      : Audio Coding 3
Mode extension                   : CM (complete main)
Codec ID                         : 2000
Duration                         : 1h 49mn
Bit rate mode                    : Constant
Bit rate                         : 448 Kbps
Channel(s)                       : 2 channels
Channel positions                : Front: L R
Sampling rate                    : 48.0 KHz
Bit depth                        : 16 bits
Compression mode                 : Lossy
Stream size                      : 350 MiB (23%)
Alignment                        : Aligned on interleaves
Interleave, duration             : 40 ms (1.00 video frame)
Interleave, preload duration     : 512 ms

SOURCE:
The Three Musketeers DVDSCR STUDiO AUDiO XviD AC3 BHRG:Thanks Guys.

SAMPLE:Yes.

PLOT:
The hot-headed young D'Artagnan along with three former legendary but now down on their luck Musketeers must unite and defeat a beautiful double agent and her villainous employer from seizing the French throne and engulfing Europe in war. 

SCREENS:
[img]http://lookpic.com/O/i2/1895/2th5x2uw.png[/img]
[img]http://lookpic.com/O/i2/1174/gQ6wg5AT.png[/img]
[img]http://lookpic.com/O/i2/35/JgDovWNE.png[/img]
[img]http://lookpic.com/O/i2/1267/BlBXiD9q.png[/img]
[img]http://lookpic.com/O/i2/1035/qjGIzUPU.png[/img]
[img]http://lookpic.com/O/i2/555/v9e46TzP.png[/img]
 
http://www.imdb.com/title/tt1509767/

A big shout out to
Friends,
w13,bobwhite,BigRed81,tinners,sa55,greyshadow,Reidy,NiNe,Bustheadz,Stoner,Selina,

GREETS:

IMAGiNE,FLAWL3SS,BHRG,RemixHD,PRESTIGE,BOW,TWiZTED,KiK,iGNiTiON,*THC*,INF1N1TY,BBnRG,SiC,CrEwSaDe,DTRG,UnKnOwN,26k,Purple Dragon 

and all other Groups past and present
[img]http://i.imgur.com/sKPbS.gif[/img]